<svg width="18" height="18" viewBox="0 0 18 18" fill="none" xmlns="http://www.w3.org/2000/svg">
<g clip-path="url(#clip0)">
<path d="M17.9973 6.88137C17.9955 6.86069 17.9914 6.84027 17.985 6.82047C17.9809 6.80279 17.9752 6.78552 17.9679 6.76886C17.9595 6.75258 17.9495 6.73718 17.938 6.72294C17.9264 6.70603 17.913 6.69046 17.898 6.67643C17.8932 6.67225 17.8912 6.66651 17.8861 6.66233L15.0008 4.42153V2.09913C15.0008 1.60207 14.5978 1.19909 14.1008 1.19909H10.8495L9.54771 0.188327C9.22612 -0.0624908 8.77515 -0.0624908 8.45356 0.188327L7.15148 1.19909H3.90021C3.40315 1.19909 3.00016 1.60203 3.00016 2.09913V4.42157L0.115838 6.66237C0.11074 6.66659 0.10863 6.67228 0.103849 6.67647C0.0889067 6.69046 0.0755115 6.70607 0.0639445 6.72298C0.0524127 6.73722 0.0423575 6.75258 0.0339548 6.7689C0.0266771 6.78553 0.0209815 6.80282 0.016868 6.82051C0.0106099 6.84002 0.00649637 6.86013 0.00456268 6.88052C0.00456268 6.88682 0.000976562 6.89223 0.000976562 6.89852V17.0999C0.00139846 17.2907 0.0631359 17.4764 0.177083 17.6294C0.178876 17.6321 0.179192 17.6354 0.181267 17.6378C0.183376 17.6402 0.187876 17.6429 0.190865 17.6462C0.359412 17.868 0.62155 17.9987 0.900107 17.9999H17.1009C17.3806 17.9991 17.6438 17.8677 17.8125 17.6447C17.8149 17.6417 17.8186 17.6408 17.8206 17.6378C17.8227 17.6348 17.823 17.6321 17.8248 17.6294C17.9388 17.4764 18.0005 17.2907 18.001 17.0999V6.89937C18.0009 6.89307 17.9977 6.88766 17.9973 6.88137ZM8.82046 0.66173C8.92524 0.578476 9.0736 0.578476 9.17837 0.66173L9.87049 1.19905H8.13042L8.82046 0.66173ZM0.975697 17.3999L8.8205 11.3063C8.92534 11.2232 9.0736 11.2232 9.17841 11.3063L17.0253 17.3999H0.975697ZM17.4009 16.9322L9.54771 10.8329C9.22605 10.5822 8.77522 10.5822 8.45356 10.8329L0.600069 16.9322V7.35628L5.51642 11.174C5.64742 11.2756 5.83594 11.2517 5.93751 11.1207C6.03908 10.9897 6.01524 10.8012 5.88424 10.6996L0.889595 6.82135L3.0002 5.18116V7.49937C3.0002 7.66507 3.13454 7.79938 3.3002 7.79938C3.4659 7.79938 3.60021 7.66504 3.60021 7.49937V2.0991C3.60021 1.9334 3.73451 1.79909 3.90021 1.79909H14.1007C14.2664 1.79909 14.4007 1.9334 14.4007 2.0991V7.49937C14.4007 7.66507 14.535 7.79938 14.7007 7.79938C14.8664 7.79938 15.0007 7.66504 15.0007 7.49937V5.18116L17.1113 6.82135L12.108 10.7066C12.0219 10.7718 11.9775 10.8782 11.9918 10.9853C12.0061 11.0924 12.0768 11.1835 12.1769 11.2239C12.2771 11.2643 12.3913 11.2478 12.4758 11.1806L17.4008 7.35628V16.9322H17.4009Z" fill="black"/>
<path d="M12.5997 7.19931V5.99926C12.5997 4.01093 10.9879 2.39908 8.99953 2.39908C7.01121 2.39908 5.39935 4.01093 5.39935 5.99926C5.39935 7.98759 7.01121 9.59944 8.99953 9.59944C9.16523 9.59944 9.29953 9.46514 9.29953 9.29944C9.29953 9.13374 9.16523 8.99944 8.99953 8.99944C7.3426 8.99944 5.99939 7.65622 5.99939 5.9993C5.99939 4.34237 7.3426 2.99916 8.99953 2.99916C10.6565 2.99916 11.9997 4.34237 11.9997 5.9993V7.19935C11.9997 7.53075 11.731 7.79939 11.3996 7.79939C11.0682 7.79939 10.7996 7.53075 10.7996 7.19935V5.9993C10.7996 5.8336 10.6653 5.69929 10.4996 5.69929C10.3339 5.69929 10.1996 5.8336 10.1996 5.9993C10.1996 6.66206 9.66229 7.19935 8.99953 7.19935C8.33677 7.19935 7.79948 6.66206 7.79948 5.9993C7.79948 5.33653 8.33677 4.79925 8.99953 4.79925C9.16523 4.79925 9.29953 4.66494 9.29953 4.49924C9.29953 4.33354 9.16523 4.19924 8.99953 4.19924C8.19388 4.19745 7.48513 4.73118 7.26434 5.50599C7.04355 6.28081 7.36444 7.10797 8.05002 7.53113C8.7356 7.95429 9.61884 7.87041 10.2125 7.3257C10.2778 7.96017 10.8293 8.43192 11.4662 8.3982C12.1031 8.36445 12.6017 7.83715 12.5997 7.19931Z" fill="black"/>
</g>
<defs>
<clipPath id="clip0">
<rect width="18" height="18" fill="white"/>
</clipPath>
</defs>
</svg>
