<svg width="18" height="18" viewBox="0 0 18 18" fill="none" xmlns="http://www.w3.org/2000/svg">
<path d="M12.9375 11.5312C12.9375 11.8094 13.02 12.0813 13.1745 12.3125C13.329 12.5438 13.5486 12.724 13.8056 12.8305C14.0626 12.9369 14.3453 12.9647 14.6181 12.9105C14.8909 12.8562 15.1415 12.7223 15.3381 12.5256C15.5348 12.329 15.6687 12.0784 15.723 11.8056C15.7773 11.5328 15.7494 11.2501 15.643 10.9931C15.5365 10.7361 15.3563 10.5165 15.125 10.362C14.8938 10.2075 14.6219 10.125 14.3438 10.125C13.9709 10.1254 13.6135 10.2737 13.3499 10.5374C13.0862 10.801 12.9379 11.1584 12.9375 11.5312ZM15.1875 11.5312C15.1875 11.6981 15.138 11.8613 15.0453 12C14.9526 12.1388 14.8208 12.2469 14.6666 12.3108C14.5125 12.3746 14.3428 12.3913 14.1791 12.3588C14.0155 12.3262 13.8651 12.2459 13.7471 12.1279C13.6291 12.0099 13.5488 11.8595 13.5162 11.6959C13.4837 11.5322 13.5004 11.3625 13.5642 11.2084C13.6281 11.0542 13.7362 10.9224 13.875 10.8297C14.0137 10.737 14.1769 10.6875 14.3438 10.6875C14.5675 10.6875 14.7821 10.7764 14.9404 10.9346C15.0986 11.0929 15.1875 11.3075 15.1875 11.5312Z" fill="black"/>
<path d="M15.3225 15.5559C16.1775 14.4534 17.4375 12.6394 17.4375 11.5312C17.4359 10.8089 17.1821 10.1099 16.72 9.55476C16.2578 8.99966 15.6163 8.62338 14.9063 8.49093V5.34374L15.9609 5.61656C15.984 5.62213 16.0076 5.62496 16.0313 5.62499C16.1058 5.62499 16.1774 5.59536 16.2301 5.54262C16.2829 5.48987 16.3125 5.41834 16.3125 5.34374V3.65625C16.3126 3.59381 16.2919 3.53311 16.2538 3.48372C16.2156 3.43432 16.162 3.39904 16.1016 3.38343L8.50782 1.41468C8.46162 1.40344 8.41339 1.40344 8.36719 1.41468L0.773441 3.38343C0.712987 3.39904 0.659446 3.43432 0.621255 3.48372C0.583064 3.53311 0.562394 3.59381 0.562504 3.65625V5.34374C0.562285 5.38675 0.572083 5.42922 0.591121 5.46779C0.61016 5.50635 0.637916 5.53995 0.672191 5.56593C0.70614 5.59195 0.745501 5.61001 0.787367 5.61877C0.829233 5.62754 0.872532 5.62678 0.914066 5.61656L1.96875 5.34374V15.4687C1.96875 15.5433 1.99839 15.6149 2.05113 15.6676C2.10387 15.7204 2.17541 15.75 2.25 15.75H12.7069C12.3469 15.9075 12.0938 16.1381 12.0938 16.4531C12.0938 17.1281 13.2609 17.4375 14.3438 17.4375C15.4266 17.4375 16.5938 17.1281 16.5938 16.4531C16.5938 15.9665 16.0003 15.6853 15.3225 15.5559ZM16.875 11.5312C16.875 12.6197 15.2072 14.8416 14.3438 15.8794C13.4803 14.8416 11.8125 12.6197 11.8125 11.5312C11.8125 10.8599 12.0792 10.2161 12.5539 9.74138C13.0286 9.26668 13.6724 8.99999 14.3438 8.99999C15.0151 8.99999 15.6589 9.26668 16.1336 9.74138C16.6083 10.2161 16.875 10.8599 16.875 11.5312ZM10.4063 8.99999V7.87499C10.4067 7.65266 10.4729 7.43543 10.5965 7.25061C10.7201 7.06579 10.8956 6.92164 11.1009 6.83627C11.3062 6.75091 11.5321 6.72814 11.7503 6.77084C11.9685 6.81354 12.1692 6.91979 12.3272 7.07624C12.5376 7.28887 12.6559 7.57583 12.6563 7.87499V8.94093L12.5719 8.99999H10.4063ZM1.125 4.98093V3.87281L8.4375 1.97718L15.75 3.87281V4.98093L8.50782 3.10218C8.46162 3.09094 8.41339 3.09094 8.36719 3.10218L1.125 4.98093ZM8.15625 15.1875H6.75V11.25H8.15625V15.1875ZM10.125 15.1875H8.71875V11.25H10.125V15.1875ZM10.6875 15.1875V10.9687C10.6875 10.8941 10.6579 10.8226 10.6051 10.7699C10.5524 10.7171 10.4808 10.6875 10.4063 10.6875H6.46875C6.39416 10.6875 6.32262 10.7171 6.26988 10.7699C6.21713 10.8226 6.1875 10.8941 6.1875 10.9687V15.1875H2.53125V5.19749L8.4375 3.66468L14.3438 5.19749V8.43749C13.9588 8.43859 13.5773 8.51106 13.2188 8.65124V7.87499C13.2188 7.42744 13.041 6.99822 12.7245 6.68175C12.408 6.36528 11.9788 6.18749 11.5313 6.18749C11.0837 6.18749 10.6545 6.36528 10.338 6.68175C10.0215 6.99822 9.84375 7.42744 9.84375 7.87499V8.99999H9.5625V9.56249H11.9588C11.5001 10.116 11.2494 10.8124 11.25 11.5312C11.25 12.5212 12.2597 14.0794 13.0838 15.1875H10.6875ZM14.3438 16.875C13.2638 16.875 12.69 16.5656 12.6563 16.4587C12.6816 16.3715 13.0416 16.1494 13.77 16.065C13.9697 16.3125 14.1075 16.47 14.1328 16.4981C14.1592 16.528 14.1917 16.552 14.228 16.5684C14.2644 16.5848 14.3039 16.5933 14.3438 16.5933C14.3837 16.5933 14.4231 16.5848 14.4595 16.5684C14.4958 16.552 14.5283 16.528 14.5547 16.4981C14.58 16.47 14.7178 16.3125 14.9175 16.065C15.6459 16.1494 16.0059 16.3715 16.0313 16.4475C15.9975 16.5656 15.4238 16.875 14.3438 16.875Z" fill="black"/>
<path d="M7.3125 12.9375H7.875V13.5H7.3125V12.9375Z" fill="black"/>
<path d="M9 12.9375H9.5625V13.5H9V12.9375Z" fill="black"/>
<path d="M7.03125 9V7.875C7.03125 7.42745 6.85346 6.99822 6.53699 6.68176C6.22053 6.36529 5.7913 6.1875 5.34375 6.1875C4.8962 6.1875 4.46697 6.36529 4.15051 6.68176C3.83404 6.99822 3.65625 7.42745 3.65625 7.875V9H3.375V9.5625H7.3125V9H7.03125ZM6.46875 9H4.21875V7.875C4.21875 7.57663 4.33728 7.29048 4.54826 7.07951C4.75923 6.86853 5.04538 6.75 5.34375 6.75C5.64212 6.75 5.92827 6.86853 6.13925 7.07951C6.35022 7.29048 6.46875 7.57663 6.46875 7.875V9Z" fill="black"/>
</svg>
