<svg width="18" height="18" viewBox="0 0 18 18" fill="none" xmlns="http://www.w3.org/2000/svg">
<path d="M12.7785 0H5.22146C4.49306 0 3.89996 0.5931 3.89996 1.3215V16.6782C3.89996 17.4069 4.49306 18 5.22146 18H12.7782C13.5069 18 14.1 17.4069 14.1 16.6785V1.3215C14.1 0.5931 13.5069 0 12.7785 0ZM4.49996 2.4H13.5V13.8H4.49996V2.4ZM5.22146 0.6H12.7782C13.1763 0.6 13.5 0.9237 13.5 1.3215V1.8H4.49996V1.3215C4.49996 0.9237 4.82366 0.6 5.22146 0.6ZM12.7785 17.4H5.22146C4.82366 17.4 4.49996 17.0763 4.49996 16.6785V14.4H13.5V16.6785C13.5 17.0763 13.1763 17.4 12.7785 17.4Z" fill="black"/>
<path d="M8.99999 14.7C8.33819 14.7 7.79999 15.2382 7.79999 15.9C7.79999 16.5618 8.33819 17.1 8.99999 17.1C9.66179 17.1 10.2 16.5618 10.2 15.9C10.2 15.2382 9.66179 14.7 8.99999 14.7ZM8.99999 16.5C8.66909 16.5 8.39999 16.2309 8.39999 15.9C8.39999 15.5691 8.66909 15.3 8.99999 15.3C9.33089 15.3 9.59999 15.5691 9.59999 15.9C9.59999 16.2309 9.33089 16.5 8.99999 16.5Z" fill="black"/>
<path d="M7.8 1.49999H9C9.1659 1.49999 9.3 1.36589 9.3 1.19999C9.3 1.03409 9.1659 0.899994 9 0.899994H7.8C7.6341 0.899994 7.5 1.03409 7.5 1.19999C7.5 1.36589 7.6341 1.49999 7.8 1.49999Z" fill="black"/>
<path d="M9.89998 1.49999H10.2C10.3659 1.49999 10.5 1.36589 10.5 1.19999C10.5 1.03409 10.3659 0.899994 10.2 0.899994H9.89998C9.73408 0.899994 9.59998 1.03409 9.59998 1.19999C9.59998 1.36589 9.73408 1.49999 9.89998 1.49999Z" fill="black"/>
<path d="M16.9835 1.37069C16.8662 1.25339 16.6766 1.25339 16.5593 1.37069C16.442 1.48799 16.442 1.67759 16.5593 1.79489C17.6801 2.91569 17.6801 4.73939 16.5593 5.86049C16.442 5.97779 16.442 6.16739 16.5593 6.28469C16.6178 6.34319 16.6946 6.37259 16.7714 6.37259C16.8482 6.37259 16.925 6.34319 16.9835 6.28469C18.3383 4.93019 18.3383 2.72549 16.9835 1.37069Z" fill="black"/>
<path d="M15.7203 2.05349C15.603 1.93619 15.4134 1.93619 15.2961 2.05349C15.1788 2.17079 15.1788 2.36039 15.2961 2.47769C15.6672 2.84879 15.8715 3.34319 15.8715 3.86939C15.8715 4.39559 15.6672 4.88969 15.2961 5.26079C15.1788 5.37809 15.1788 5.56769 15.2961 5.68499C15.3546 5.74349 15.4314 5.77289 15.5082 5.77289C15.585 5.77289 15.6618 5.74349 15.7203 5.68499C16.2048 5.20079 16.4715 4.55579 16.4715 3.86939C16.4715 3.18299 16.2051 2.53769 15.7203 2.05349Z" fill="black"/>
<path d="M1.44128 1.79489C1.55858 1.67759 1.55858 1.48799 1.44128 1.37069C1.32398 1.25339 1.13438 1.25339 1.01708 1.37069C-0.337723 2.72549 -0.337723 4.92989 1.01708 6.28469C1.07558 6.34319 1.15238 6.37259 1.22918 6.37259C1.30598 6.37259 1.38278 6.34319 1.44128 6.28469C1.55858 6.16739 1.55858 5.97779 1.44128 5.86049C0.320176 4.73969 0.320176 2.91599 1.44128 1.79489Z" fill="black"/>
<path d="M2.7039 1.9707C2.5866 1.8534 2.397 1.8534 2.2797 1.9707C1.7952 2.4549 1.5285 3.0999 1.5285 3.7863C1.5285 4.4727 1.7952 5.1177 2.2797 5.6022C2.3382 5.6607 2.415 5.6901 2.4918 5.6901C2.5686 5.6901 2.6454 5.6607 2.7039 5.6022C2.8212 5.4849 2.8212 5.2953 2.7039 5.178C2.3328 4.8069 2.1285 4.3125 2.1285 3.7863C2.1285 3.2601 2.3325 2.766 2.7039 2.3949C2.8209 2.2779 2.8209 2.088 2.7039 1.9707Z" fill="black"/>
</svg>
